<svg width="41" height="40" viewBox="0 0 41 40" fill="none" xmlns="http://www.w3.org/2000/svg">
<g clip-path="url(#clip0_968_49583)">
<path d="M20.9917 40.0003C32.0374 40.0003 40.9917 38.1348 40.9917 35.8337C40.9917 33.5325 32.0374 31.667 20.9917 31.667C9.94597 31.667 0.991669 33.5325 0.991669 35.8337C0.991669 38.1348 9.94597 40.0003 20.9917 40.0003Z" fill="#434352"/>
<path d="M20.9917 31.6663C32.0374 31.6663 40.9917 29.8009 40.9917 27.4997C40.9917 25.1985 32.0374 23.333 20.9917 23.333C9.94597 23.333 0.991669 25.1985 0.991669 27.4997C0.991669 29.8009 9.94597 31.6663 20.9917 31.6663Z" fill="#434352"/>
<path d="M20.9917 23.3333C32.0374 23.3333 40.9917 21.4679 40.9917 19.1667C40.9917 16.8655 32.0374 15 20.9917 15C9.94597 15 0.991669 16.8655 0.991669 19.1667C0.991669 21.4679 9.94597 23.3333 20.9917 23.3333Z" fill="#434352"/>
<path d="M20.9917 0C9.94723 0 0.991669 3.35833 0.991669 7.5C0.991669 11.6417 9.94723 15 20.9917 15C32.0361 15 40.9917 11.6417 40.9917 7.5C40.9917 3.35833 32.0361 0 20.9917 0ZM20.9917 10.3139C16.85 10.3139 13.4917 9.05278 13.4917 7.5C13.4917 5.94722 16.85 4.68889 20.9917 4.68889C25.1333 4.68889 28.4917 5.94722 28.4917 7.5C28.4917 9.05278 25.1333 10.3139 20.9917 10.3139Z" fill="#434352"/>
</g>
<defs>
<clipPath id="clip0_968_49583">
<rect width="40" height="40" fill="white" transform="translate(0.991669)"/>
</clipPath>
</defs>
</svg>
