<svg width="335" height="162" viewBox="0 0 335 162" fill="none" xmlns="http://www.w3.org/2000/svg">
<rect width="335" height="162" rx="20" fill="#C6CDD2"/>
<mask id="mask0_1243_92522" style="mask-type:alpha" maskUnits="userSpaceOnUse" x="155" y="0" width="113" height="162">
<rect x="155" width="112.382" height="162" fill="#D9D9D9"/>
</mask>
<g mask="url(#mask0_1243_92522)">
<ellipse cx="296.793" cy="85.7901" rx="81.2132" ry="80.5645" fill="#989DA6"/>
</g>
<mask id="mask1_1243_92522" style="mask-type:alpha" maskUnits="userSpaceOnUse" x="222" y="0" width="113" height="162">
<rect x="222.604" width="112.382" height="162" fill="#D9D9D9"/>
</mask>
<g mask="url(#mask1_1243_92522)">
<ellipse cx="348.595" cy="81.4356" rx="81.2132" ry="80.5645" fill="#989DA6"/>
</g>
<rect x="27" y="11" width="89" height="18" rx="5" fill="#E6E9EB"/>
<path d="M40.6834 25V17.118L45.5134 25H47.2494V15.34H45.8494V22.872L41.2154 15.34H39.2974V25H40.6834ZM54.0414 25.21C56.8414 25.21 58.9974 23.096 58.9974 20.17C58.9974 17.244 56.8414 15.13 54.0414 15.13C51.2554 15.13 49.0994 17.244 49.0994 20.17C49.0994 23.096 51.2554 25.21 54.0414 25.21ZM54.0414 23.852C52.0674 23.852 50.6674 22.242 50.6674 20.17C50.6674 18.098 52.0674 16.488 54.0414 16.488C56.0294 16.488 57.4294 18.098 57.4294 20.17C57.4294 22.242 56.0294 23.852 54.0414 23.852ZM64.4808 25V16.684H68.0648V15.34H59.3988V16.684H62.9828V25H64.4808ZM71.0239 25V15.34H69.5259V25H71.0239ZM77.8028 25.21C80.2248 25.21 82.0028 23.754 82.4788 21.612H80.9248C80.4908 22.942 79.3568 23.852 77.8028 23.852C75.8288 23.852 74.4568 22.256 74.4568 20.17C74.4568 18.056 75.8288 16.488 77.8028 16.488C79.3708 16.488 80.5468 17.468 80.9248 18.868H82.4928C82.0448 16.614 80.1968 15.13 77.8028 15.13C75.0308 15.13 72.8888 17.272 72.8888 20.184C72.8888 23.11 75.0308 25.21 77.8028 25.21ZM85.6939 25V15.34H84.1959V25H85.6939ZM96.4207 25L92.8367 15.34H90.8487L87.1387 25H88.6367L89.5467 22.55H93.9427L94.8667 25H96.4207ZM91.7447 16.656L93.4807 21.29H90.0227L91.7447 16.656ZM100.773 25.21C102.915 25.21 104.329 23.992 104.329 22.312C104.329 20.562 102.999 19.89 101.543 19.554L100.507 19.302C99.247 19.008 98.659 18.644 98.659 17.818C98.659 17.034 99.359 16.418 100.577 16.418C101.697 16.418 102.411 16.922 102.677 18.028H104.147C103.839 16.292 102.691 15.13 100.577 15.13C98.547 15.13 97.161 16.348 97.161 17.944C97.161 19.568 98.435 20.31 99.779 20.618L100.815 20.856C102.159 21.15 102.789 21.542 102.789 22.452C102.789 23.306 101.977 23.922 100.773 23.922C99.639 23.922 98.617 23.446 98.295 22.2H96.825C97.035 23.964 98.463 25.21 100.773 25.21Z" fill="#434352"/>
<circle cx="296" cy="20" r="6" fill="#43DB7F"/>
</svg>
