<svg width="41" height="40" viewBox="0 0 41 40" fill="none" xmlns="http://www.w3.org/2000/svg">
<path d="M33.0435 26.087C30.9536 26.087 29.0783 27.0145 27.8029 28.4783L13.7594 21.4551C13.8609 20.9797 13.9159 20.4957 13.9159 20C13.9159 19.5043 13.8609 19.0174 13.7594 18.5449L27.8 11.5246C29.1014 13.0261 30.9913 13.913 33.0464 13.913C36.8812 13.913 40.0029 10.7913 40.0029 6.95652C40.0029 3.12174 36.8783 0 33.0435 0C29.2087 0 26.087 3.12174 26.087 6.95652C26.087 7.45217 26.142 7.93913 26.2435 8.41159L12.2029 15.4319C10.9014 13.9304 9.01159 13.0435 6.95652 13.0435C3.12174 13.0435 0 16.1652 0 20C0 23.8348 3.12174 26.9565 6.95652 26.9565C9.01159 26.9565 10.9014 26.0696 12.2029 24.5681L26.2406 31.5884C26.1391 32.058 26.087 32.5449 26.087 33.0435C26.087 36.8783 29.2087 40 33.0435 40C36.8783 40 40 36.8783 40 33.0435C40 29.2087 36.8783 26.087 33.0435 26.087ZM33.0435 3.47826C34.9623 3.47826 36.5217 5.03768 36.5217 6.95652C36.5217 8.87536 34.9623 10.4348 33.0435 10.4348C31.7188 10.4348 30.5246 9.69855 29.9333 8.51304C29.6899 8.02609 29.5652 7.50145 29.5652 6.95652C29.5652 5.03768 31.1246 3.47826 33.0435 3.47826ZM6.95652 23.4783C5.03768 23.4783 3.47826 21.9188 3.47826 20C3.47826 18.0812 5.03768 16.5217 6.95652 16.5217C8.28406 16.5217 9.47536 17.258 10.0667 18.4435C10.3101 18.9304 10.4348 19.4551 10.4348 20C10.4348 20.5449 10.3101 21.0696 10.0667 21.5565C9.47246 22.742 8.28116 23.4783 6.95652 23.4783ZM33.0435 36.5217C31.1246 36.5217 29.5652 34.9623 29.5652 33.0435C29.5652 31.1246 31.1246 29.5652 33.0435 29.5652C34.9623 29.5652 36.5217 31.1246 36.5217 33.0435C36.5217 34.9623 34.9623 36.5217 33.0435 36.5217Z" fill="#666671"/>
</svg>
