<svg width="72" height="72" viewBox="0 0 72 72" fill="none" xmlns="http://www.w3.org/2000/svg">
<path d="M72 36C72 16.1177 55.8823 0 36 0C16.1177 0 0 16.1177 0 36C0 55.8823 16.1177 72 36 72C55.8823 72 72 55.8823 72 36Z" fill="#00A6DD"/>
<path d="M33.93 18.85H49.34V19.76C49.34 23.15 46.58 25.91 43.19 25.91H27.78V25C27.78 21.61 30.54 18.85 33.93 18.85Z" fill="white"/>
<path d="M24.14 35.05L26.78 29.18C26.78 29.18 49.33 26.24 49.33 40.93C49.33 55.62 22.67 52.09 22.67 52.09L25.21 46.51C25.21 46.51 42.14 47.23 42.14 40.71C42.14 34.19 24.13 35.07 24.13 35.07L24.14 35.05Z" fill="white"/>
<path d="M30.62 44.97C32.9783 44.97 34.89 43.0582 34.89 40.7C34.89 38.3417 32.9783 36.43 30.62 36.43C28.2618 36.43 26.35 38.3417 26.35 40.7C26.35 43.0582 28.2618 44.97 30.62 44.97Z" fill="white"/>
</svg>
