<svg width="42" height="40" viewBox="0 0 42 40" fill="none" xmlns="http://www.w3.org/2000/svg">
<g clip-path="url(#clip0_968_49579)">
<path d="M20.9986 8.33594C9.9503 8.33594 0.991638 10.2033 0.991638 12.5041V38.3325C0.991638 39.2522 1.73912 39.9997 2.65888 39.9997H39.3383C40.258 39.9997 41.0055 39.2522 41.0055 38.3325V12.5041C41.0055 10.2005 32.0469 8.33594 20.9986 8.33594ZM19.5231 34.998H7.01595V34.5673C7.01595 29.7906 9.48625 28.3151 12.6512 26.4617L13.4293 26.006C15.6301 24.7166 17.1056 23.7524 17.1056 21.6572C17.1056 19.5621 15.5495 18.3283 13.5349 18.3283C11.5203 18.3283 9.72245 19.6704 9.45569 22.3797H7.25492C7.57726 18.784 10.2337 16.4749 13.6155 16.4749C16.9972 16.4749 19.3063 18.5145 19.3063 21.6822C19.3063 24.85 17.1334 26.056 14.5825 27.5593L13.8044 28.015C11.2535 29.5183 9.59185 30.4853 9.32231 33.089H19.5203V34.9952L19.5231 34.998ZM35.3036 30.7576H32.4331V34.998H30.4213V30.7576H21.2959V28.7986L30.1268 16.8806H32.4359V29.0126H35.3063V30.7576H35.3036Z" fill="#434352"/>
<path d="M20.9986 8.33623C32.0481 8.33623 41.0055 6.4701 41.0055 4.16811C41.0055 1.86613 32.0481 0 20.9986 0C9.94905 0 0.991638 1.86613 0.991638 4.16811C0.991638 6.4701 9.94905 8.33623 20.9986 8.33623Z" fill="#434352"/>
<path d="M30.4185 29.0156V19.3262L23.2271 29.0156H30.4185Z" fill="#434352"/>
</g>
<defs>
<clipPath id="clip0_968_49579">
<rect width="40.0139" height="40" fill="white" transform="translate(0.991638)"/>
</clipPath>
</defs>
</svg>
