<svg width="25" height="25" viewBox="0 0 25 25" fill="none" xmlns="http://www.w3.org/2000/svg">
<path d="M24.3038 9.375H21.8194C21.5365 9.375 21.283 9.20486 21.1753 8.94271C21.1667 8.92187 21.158 8.89931 21.1493 8.87847C21.0399 8.61806 21.1007 8.31944 21.2986 8.11979L22.9444 6.47396C23.217 6.20312 23.217 5.76042 22.9444 5.48958L19.5122 2.05556C19.2396 1.78299 18.7969 1.78299 18.526 2.05556L16.8802 3.70139C16.6806 3.90104 16.3819 3.96007 16.1215 3.85069C16.1007 3.84201 16.0781 3.83333 16.0573 3.82465C15.7951 3.71875 15.625 3.46354 15.625 3.18229V0.697917C15.625 0.3125 15.3125 0 14.9288 0H10.0729C9.6875 0 9.375 0.3125 9.375 0.697917V3.18229C9.375 3.46354 9.2066 3.71701 8.94618 3.82465C8.90625 3.84028 8.86632 3.85764 8.82639 3.87326C8.56597 3.98437 8.26562 3.92361 8.06597 3.72396L6.47569 2.13368C6.20312 1.86111 5.76215 1.86111 5.48958 2.13368L2.05556 5.56771C1.78299 5.84028 1.78299 6.28125 2.05556 6.55382L3.67882 8.17708C3.87847 8.375 3.93576 8.67361 3.82986 8.93403C3.82986 8.93576 3.82986 8.93924 3.82639 8.94271C3.71875 9.20312 3.46528 9.375 3.18229 9.375H0.697917C0.3125 9.375 0 9.6875 0 10.0729V14.9271C0 15.3125 0.3125 15.625 0.697917 15.625H3.18229C3.46354 15.625 3.71875 15.7951 3.82465 16.0573C3.83333 16.0781 3.84201 16.1007 3.85243 16.1215C3.96007 16.3819 3.90104 16.6806 3.70139 16.8802L2.05556 18.526C1.78299 18.7969 1.78299 19.2396 2.05556 19.5104L5.48958 22.9444C5.76215 23.217 6.20312 23.217 6.47569 22.9444L8.12153 21.2986C8.31944 21.099 8.61979 21.0399 8.87847 21.1493C8.90104 21.158 8.92187 21.1667 8.94271 21.1753C9.20486 21.2812 9.375 21.5365 9.375 21.8177V24.3021C9.375 24.6875 9.6875 25 10.0729 25H14.9288C15.3125 25 15.625 24.6875 15.625 24.3021V21.8177C15.625 21.5365 15.7951 21.283 16.0556 21.1753C16.0955 21.1597 16.1354 21.1424 16.1753 21.1267C16.434 21.0156 16.7361 21.0764 16.9358 21.276L18.526 22.8663C18.7969 23.1389 19.2396 23.1389 19.5122 22.8663L22.9444 19.4323C23.217 19.1597 23.217 18.7187 22.9444 18.4462L21.3212 16.8229C21.1233 16.625 21.0642 16.3264 21.1719 16.066C21.1719 16.0642 21.1719 16.0608 21.1753 16.0573C21.2812 15.7969 21.5365 15.625 21.8177 15.625H24.3038C24.6875 15.625 25 15.3125 25 14.9271V10.0729C25 9.6875 24.6875 9.375 24.3038 9.375V9.375ZM12.5 17.1875C9.91146 17.1875 7.8125 15.0885 7.8125 12.5C7.8125 9.91146 9.91146 7.8125 12.5 7.8125C15.0885 7.8125 17.1875 9.91146 17.1875 12.5C17.1875 15.0885 15.0885 17.1875 12.5 17.1875Z" fill="#434352"/>
</svg>
