<svg width="29" height="25" viewBox="0 0 29 25" fill="none" xmlns="http://www.w3.org/2000/svg">
<g clip-path="url(#clip0_1252_42968)">
<path fill-rule="evenodd" clip-rule="evenodd" d="M14.3229 24.998L26.5154 12.5179C27.9102 11.0893 28.6066 9.22024 28.6066 7.34722C28.6066 5.47421 27.9102 3.60317 26.5154 2.17659C23.7257 -0.676587 19.2039 -0.676587 16.4142 2.17659L14.3229 4.31944L12.1939 2.14087C10.7991 0.712302 8.97173 0 7.14236 0C5.313 0 3.48561 0.712302 2.09077 2.14087C-0.696925 4.99603 -0.696925 9.625 2.09077 12.4802L14.3229 24.998ZM17.3085 3.04996C17.3083 3.05013 17.3081 3.0503 17.308 3.05047L14.3235 6.10854L11.2999 3.01452C10.1472 1.83393 8.64504 1.25 7.14236 1.25C5.63968 1.25 4.13787 1.83354 2.98515 3.01413C0.671734 5.38354 0.671614 9.23695 2.98478 11.6065C2.9849 11.6066 2.98465 11.6064 2.98478 11.6065L5.11374 13.7851L14.3228 23.2094L25.621 11.6446C26.7758 10.4618 27.3566 8.91151 27.3566 7.34722C27.3566 5.78242 26.7755 4.23064 25.6216 3.05047C23.3224 0.698955 19.6078 0.698785 17.3085 3.04996Z" fill="#989DA6"/>
</g>
<defs>
<clipPath id="clip0_1252_42968">
<rect width="28.75" height="25" fill="white"/>
</clipPath>
</defs>
</svg>
