<svg width="40" height="40" viewBox="0 0 40 40" fill="none" xmlns="http://www.w3.org/2000/svg">
<g clip-path="url(#clip0_968_49578)">
<path d="M39.5112 13.0757L21.1216 0.322653C20.5052 -0.104947 19.4945 -0.104947 18.8781 0.322653L0.488575 13.0757C-0.538774 13.7893 0.1887 15.0082 1.64365 15.0082H38.3561C39.8111 15.0082 40.5386 13.7893 39.5112 13.0757Z" fill="#434352"/>
<path d="M20 39.9998C29.6609 39.9998 37.4927 38.1351 37.4927 35.8349C37.4927 33.5346 29.6609 31.6699 20 31.6699C10.339 31.6699 2.50726 33.5346 2.50726 35.8349C2.50726 38.1351 10.339 39.9998 20 39.9998Z" fill="#434352"/>
<path d="M20 31.6697C29.6609 31.6697 37.4927 29.805 37.4927 27.5048C37.4927 25.2045 29.6609 23.3398 20 23.3398C10.339 23.3398 2.50726 25.2045 2.50726 27.5048C2.50726 29.805 10.339 31.6697 20 31.6697Z" fill="#434352"/>
<path d="M20 23.3406C29.6609 23.3406 37.4927 21.4759 37.4927 19.1757C37.4927 16.8754 29.6609 15.0107 20 15.0107C10.339 15.0107 2.50726 16.8754 2.50726 19.1757C2.50726 21.4759 10.339 23.3406 20 23.3406Z" fill="#434352"/>
</g>
<defs>
<clipPath id="clip0_968_49578">
<rect width="39.9833" height="40" fill="white" transform="translate(0.00830078)"/>
</clipPath>
</defs>
</svg>
