<svg width="307" height="82" viewBox="0 0 307 82" fill="none" xmlns="http://www.w3.org/2000/svg">
<path d="M0 41C0 33.8203 5.8203 28 13 28H179C186.18 28 192 33.8203 192 41C192 48.1797 186.18 54 179 54H13C5.82029 54 0 48.1797 0 41Z" fill="#989DA6"/>
<path d="M15.51 47V41.852H19.56C21.81 41.852 23.466 40.394 23.466 38.18C23.466 35.966 21.828 34.58 19.56 34.58H13.584V47H15.51ZM15.492 36.272H19.416C20.694 36.272 21.522 37.01 21.522 38.252C21.522 39.44 20.694 40.142 19.416 40.142H15.492V36.272ZM30.2753 37.838C28.8173 37.838 27.5933 38.522 26.9633 39.836V38H25.1453V47H26.9813V42.608C26.9813 40.7 28.1873 39.764 29.7353 39.764C30.0053 39.764 30.1673 39.782 30.4193 39.818V37.838H30.2753ZM35.785 47.27C38.467 47.27 40.447 45.272 40.447 42.5C40.447 39.728 38.467 37.73 35.785 37.73C33.121 37.73 31.141 39.728 31.141 42.5C31.141 45.272 33.121 47.27 35.785 47.27ZM35.785 45.614C34.147 45.614 33.031 44.318 33.031 42.5C33.031 40.682 34.147 39.386 35.785 39.386C37.423 39.386 38.557 40.682 38.557 42.5C38.557 44.318 37.423 45.614 35.785 45.614ZM49.227 39.386C48.615 38.432 47.499 37.73 46.185 37.73C43.683 37.73 41.847 39.764 41.847 42.446C41.847 45.056 43.539 46.982 46.059 46.982C47.517 46.982 48.669 46.226 49.245 45.236V46.262C49.245 48.098 48.093 49.178 46.383 49.178C44.907 49.178 44.133 48.422 43.881 47.594H42.117C42.423 49.268 43.809 50.69 46.383 50.69C49.029 50.69 50.955 49.088 50.955 46.28V38H49.227V39.386ZM46.491 45.398C44.871 45.398 43.737 44.102 43.737 42.356C43.737 40.61 44.853 39.332 46.491 39.332C48.075 39.332 49.245 40.52 49.245 42.356C49.245 44.21 48.075 45.398 46.491 45.398ZM58.8046 37.838C57.3466 37.838 56.1226 38.522 55.4926 39.836V38H53.6746V47H55.5106V42.608C55.5106 40.7 56.7166 39.764 58.2646 39.764C58.5346 39.764 58.6966 39.782 58.9486 39.818V37.838H58.8046ZM62.8392 47.27C64.2792 47.27 65.2872 46.604 65.8812 45.776C65.8812 46.064 65.8812 46.712 65.8992 47H67.6992V46.964C67.6632 46.748 67.6092 45.974 67.6092 45.416V41.114C67.6092 38.954 66.2052 37.73 63.9192 37.73C61.6152 37.73 60.2112 39.08 59.9952 40.88H61.7772C61.9572 39.872 62.7132 39.242 63.9192 39.242C65.1972 39.242 65.8992 39.98 65.8992 41.132V41.51L64.8012 41.546C62.1012 41.636 59.7072 42.266 59.7072 44.516C59.7072 46.244 61.0932 47.27 62.8392 47.27ZM63.3072 45.848C62.2992 45.848 61.5792 45.326 61.5792 44.408C61.5792 43.148 63.1812 42.824 65.0892 42.716C65.4492 42.698 65.7012 42.698 65.8992 42.698V43.436C65.8992 44.642 64.9272 45.848 63.3072 45.848ZM80.6012 37.73C79.2692 37.73 78.1712 38.432 77.5412 39.26C77.0372 38.288 76.1012 37.73 74.8412 37.73C73.6712 37.73 72.6812 38.342 72.0692 39.17V38H70.2332V47H72.0692V41.51C72.0692 40.412 72.9332 39.404 74.1752 39.404C75.5432 39.404 76.1012 40.34 76.1012 41.546V47H77.9372V41.492C77.9372 40.376 78.8012 39.404 80.0612 39.404C81.4112 39.404 81.9692 40.34 81.9692 41.546V47H83.8052V41.078C83.8052 39.026 82.5632 37.73 80.6012 37.73ZM88.9603 47.27C90.4003 47.27 91.4083 46.604 92.0023 45.776C92.0023 46.064 92.0023 46.712 92.0203 47H93.8203V46.964C93.7843 46.748 93.7303 45.974 93.7303 45.416V41.114C93.7303 38.954 92.3263 37.73 90.0403 37.73C87.7363 37.73 86.3323 39.08 86.1163 40.88H87.8983C88.0783 39.872 88.8343 39.242 90.0403 39.242C91.3183 39.242 92.0203 39.98 92.0203 41.132V41.51L90.9223 41.546C88.2223 41.636 85.8283 42.266 85.8283 44.516C85.8283 46.244 87.2143 47.27 88.9603 47.27ZM89.4283 45.848C88.4203 45.848 87.7003 45.326 87.7003 44.408C87.7003 43.148 89.3023 42.824 91.2103 42.716C91.5703 42.698 91.8223 42.698 92.0203 42.698V43.436C92.0203 44.642 91.0483 45.848 89.4283 45.848ZM104.603 47.27C106.925 47.27 108.617 45.812 108.941 43.598H107.123C106.835 44.876 105.935 45.614 104.603 45.614C103.073 45.614 101.885 44.426 101.885 42.482C101.885 40.592 103.055 39.386 104.603 39.386C105.935 39.386 106.817 40.124 107.087 41.33H108.905C108.563 39.116 106.835 37.73 104.603 37.73C102.029 37.73 99.995 39.638 99.995 42.5C99.995 45.362 101.993 47.27 104.603 47.27ZM114.851 47.27C117.533 47.27 119.513 45.272 119.513 42.5C119.513 39.728 117.533 37.73 114.851 37.73C112.187 37.73 110.207 39.728 110.207 42.5C110.207 45.272 112.187 47.27 114.851 47.27ZM114.851 45.614C113.213 45.614 112.097 44.318 112.097 42.5C112.097 40.682 113.213 39.386 114.851 39.386C116.489 39.386 117.623 40.682 117.623 42.5C117.623 44.318 116.489 45.614 114.851 45.614ZM131.929 37.73C130.597 37.73 129.499 38.432 128.869 39.26C128.365 38.288 127.429 37.73 126.169 37.73C124.999 37.73 124.009 38.342 123.397 39.17V38H121.561V47H123.397V41.51C123.397 40.412 124.261 39.404 125.503 39.404C126.871 39.404 127.429 40.34 127.429 41.546V47H129.265V41.492C129.265 40.376 130.129 39.404 131.389 39.404C132.739 39.404 133.297 40.34 133.297 41.546V47H135.133V41.078C135.133 39.026 133.891 37.73 131.929 37.73ZM142.664 37.73C141.224 37.73 140.144 38.504 139.568 39.494V38H137.75V50.42H139.568V45.578C140.144 46.55 141.206 47.27 142.538 47.27C145.04 47.27 146.876 45.182 146.876 42.41C146.876 39.728 145.184 37.73 142.664 37.73ZM142.25 45.614C140.702 45.614 139.55 44.408 139.55 42.5C139.55 40.592 140.702 39.386 142.25 39.386C143.87 39.386 144.986 40.7 144.986 42.5C144.986 44.3 143.888 45.614 142.25 45.614ZM150.784 47V34.58H148.948V47H150.784ZM161.745 42.842V42.5C161.745 39.818 160.125 37.73 157.389 37.73C154.743 37.73 152.835 39.638 152.835 42.5C152.835 45.38 154.671 47.27 157.389 47.27C159.567 47.27 161.223 45.902 161.673 44.03H159.819C159.477 45.092 158.685 45.686 157.389 45.686C155.913 45.686 154.743 44.624 154.635 42.842H161.745ZM157.371 39.26C158.739 39.26 159.747 40.178 159.927 41.564H154.671C154.887 40.106 156.039 39.26 157.371 39.26ZM168.321 47.072V45.614H166.827C166.341 45.614 166.179 45.434 166.179 44.984V39.386H168.321V38H166.125V35.318H164.739C164.721 37.262 164.451 38 162.669 38.072V39.386H164.361V45.542C164.361 46.532 164.883 47.072 165.837 47.072H168.321ZM174.072 47.27C176.754 47.27 178.734 45.272 178.734 42.5C178.734 39.728 176.754 37.73 174.072 37.73C171.408 37.73 169.428 39.728 169.428 42.5C169.428 45.272 171.408 47.27 174.072 47.27ZM174.072 45.614C172.434 45.614 171.318 44.318 171.318 42.5C171.318 40.682 172.434 39.386 174.072 39.386C175.71 39.386 176.844 40.682 176.844 42.5C176.844 44.318 175.71 45.614 174.072 45.614Z" fill="#FCFCFC"/>
<path d="M213.706 47.27C216.46 47.27 218.278 45.704 218.278 43.544C218.278 41.294 216.568 40.43 214.696 39.998L213.364 39.674C211.744 39.296 210.988 38.828 210.988 37.766C210.988 36.758 211.888 35.966 213.454 35.966C214.894 35.966 215.812 36.614 216.154 38.036H218.044C217.648 35.804 216.172 34.31 213.454 34.31C210.844 34.31 209.062 35.876 209.062 37.928C209.062 40.016 210.7 40.97 212.428 41.366L213.76 41.672C215.488 42.05 216.298 42.554 216.298 43.724C216.298 44.822 215.254 45.614 213.706 45.614C212.248 45.614 210.934 45.002 210.52 43.4H208.63C208.9 45.668 210.736 47.27 213.706 47.27ZM228.669 42.842V42.5C228.669 39.818 227.049 37.73 224.313 37.73C221.667 37.73 219.759 39.638 219.759 42.5C219.759 45.38 221.595 47.27 224.313 47.27C226.491 47.27 228.147 45.902 228.597 44.03H226.743C226.401 45.092 225.609 45.686 224.313 45.686C222.837 45.686 221.667 44.624 221.559 42.842H228.669ZM224.295 39.26C225.663 39.26 226.671 40.178 226.851 41.564H221.595C221.811 40.106 222.963 39.26 224.295 39.26ZM234.703 47.27C237.025 47.27 238.717 45.812 239.041 43.598H237.223C236.935 44.876 236.035 45.614 234.703 45.614C233.173 45.614 231.985 44.426 231.985 42.482C231.985 40.592 233.155 39.386 234.703 39.386C236.035 39.386 236.917 40.124 237.187 41.33H239.005C238.663 39.116 236.935 37.73 234.703 37.73C232.129 37.73 230.095 39.638 230.095 42.5C230.095 45.362 232.093 47.27 234.703 47.27ZM244.933 47.27C247.255 47.27 248.947 45.812 249.271 43.598H247.453C247.165 44.876 246.265 45.614 244.933 45.614C243.403 45.614 242.215 44.426 242.215 42.482C242.215 40.592 243.385 39.386 244.933 39.386C246.265 39.386 247.147 40.124 247.417 41.33H249.235C248.893 39.116 247.165 37.73 244.933 37.73C242.359 37.73 240.325 39.638 240.325 42.5C240.325 45.362 242.323 47.27 244.933 47.27ZM253.076 36.56V34.58H251.204V36.56H253.076ZM253.058 47V38H251.222V47H253.058ZM259.734 47.27C262.416 47.27 264.396 45.272 264.396 42.5C264.396 39.728 262.416 37.73 259.734 37.73C257.07 37.73 255.09 39.728 255.09 42.5C255.09 45.272 257.07 47.27 259.734 47.27ZM259.734 45.614C258.096 45.614 256.98 44.318 256.98 42.5C256.98 40.682 258.096 39.386 259.734 39.386C261.372 39.386 262.506 40.682 262.506 42.5C262.506 44.318 261.372 45.614 259.734 45.614ZM271.124 37.73C269.882 37.73 268.856 38.378 268.28 39.26V38H266.444V47H268.28V41.564C268.28 40.43 269.126 39.404 270.422 39.404C271.808 39.404 272.366 40.358 272.366 41.582V47H274.22V41.024C274.22 38.99 272.978 37.73 271.124 37.73ZM285.077 42.842V42.5C285.077 39.818 283.457 37.73 280.721 37.73C278.075 37.73 276.167 39.638 276.167 42.5C276.167 45.38 278.003 47.27 280.721 47.27C282.899 47.27 284.555 45.902 285.005 44.03H283.151C282.809 45.092 282.017 45.686 280.721 45.686C279.245 45.686 278.075 44.624 277.967 42.842H285.077ZM280.703 39.26C282.071 39.26 283.079 40.178 283.259 41.564H278.003C278.219 40.106 279.371 39.26 280.703 39.26ZM290.409 47.27C292.551 47.27 294.117 46.154 294.117 44.372C294.117 42.626 292.821 41.942 291.111 41.654L290.103 41.492C289.023 41.312 288.483 41.078 288.483 40.358C288.483 39.674 289.167 39.17 290.229 39.17C291.201 39.17 292.029 39.602 292.317 40.592H294.009C293.667 38.756 292.245 37.73 290.211 37.73C288.141 37.73 286.665 38.828 286.665 40.484C286.665 42.104 287.817 42.824 289.527 43.112L290.553 43.292C291.579 43.454 292.317 43.706 292.317 44.516C292.317 45.308 291.471 45.794 290.445 45.794C289.347 45.794 288.357 45.326 288.087 44.174H286.377C286.611 46.064 288.105 47.27 290.409 47.27Z" fill="#989DA6"/>
<rect x="0.5" y="28.5" width="306" height="25" rx="12.5" stroke="#989DA6"/>
</svg>
