<svg width="41" height="46" viewBox="0 0 41 46" fill="none" xmlns="http://www.w3.org/2000/svg">
<path fill-rule="evenodd" clip-rule="evenodd" d="M26.4949 30.8876C32.2356 27.5733 34.2025 20.2327 30.8881 14.492C27.5737 8.75133 20.2332 6.78443 14.4925 10.0988C8.75181 13.4132 6.78491 20.7538 10.0993 26.4944C13.4137 32.2351 20.7542 34.202 26.4949 30.8876ZM27.9949 33.4857C35.1705 29.3429 37.629 20.1676 33.4862 12.992C29.3434 5.81645 20.168 3.35793 12.9925 7.50074C5.81694 11.6435 3.35841 20.8189 7.50122 27.9944C11.644 35.17 20.8194 37.6285 27.9949 33.4857Z" fill="#666671"/>
<path fill-rule="evenodd" clip-rule="evenodd" d="M26.7639 32.4648C27.4813 32.0506 28.3987 32.2964 28.8129 33.0139L34.3694 42.6379C34.7836 43.3554 34.5378 44.2728 33.8203 44.687C33.1029 45.1012 32.1855 44.8554 31.7713 44.1379L26.2148 34.5139C25.8006 33.7964 26.0464 32.8791 26.7639 32.4648Z" fill="#666671"/>
</svg>
