<svg width="140" height="70" viewBox="0 0 140 70" fill="none" xmlns="http://www.w3.org/2000/svg">
<ellipse cx="121.1" cy="52.5" rx="18.9" ry="17.5" fill="#434352"/>
<path d="M121.106 59.5073C125.249 59.5073 128.308 56.6494 128.308 52.6843C128.308 48.7193 125.249 45.8613 121.106 45.8613C116.99 45.8613 113.932 48.7193 113.932 52.6843C113.932 56.6494 116.99 59.5073 121.106 59.5073ZM121.106 57.1386C118.575 57.1386 116.851 55.2848 116.851 52.6843C116.851 50.0839 118.575 48.2301 121.106 48.2301C123.636 48.2301 125.388 50.0839 125.388 52.6843C125.388 55.2848 123.636 57.1386 121.106 57.1386Z" fill="#F0F4F6"/>
<ellipse cx="94.4998" cy="52.5" rx="7.7" ry="17.5" fill="#434352"/>
<path d="M96.0471 45.8613C95.1294 45.8613 94.3591 46.8397 93.9626 48.7193V46.0931H92.8184V58.9666H93.9739V52.6843C93.9739 49.9551 94.7329 48.6163 95.7072 48.6163C95.8771 48.6163 95.9791 48.642 96.1377 48.6935V45.8613H96.0471Z" fill="#F0F4F6"/>
<ellipse cx="77.0002" cy="52.5" rx="9.8" ry="17.5" fill="#434352"/>
<path d="M80.6454 53.1735V52.6843C80.6454 48.848 79.3478 45.8613 77.1562 45.8613C75.0367 45.8613 73.5083 48.5905 73.5083 52.6843C73.5083 56.8039 74.979 59.5073 77.1562 59.5073C78.9008 59.5073 80.2273 57.5505 80.5877 54.8728H79.1026C78.8287 56.3919 78.1943 57.2416 77.1562 57.2416C75.9738 57.2416 75.0367 55.7225 74.9501 53.1735H80.6454ZM77.1417 48.0498C78.2375 48.0498 79.045 49.3629 79.1892 51.3455H74.979C75.152 49.2599 76.0748 48.0498 77.1417 48.0498Z" fill="#F0F4F6"/>
<ellipse cx="33.6" cy="52.5" rx="33.6" ry="17.5" fill="#434352"/>
<path d="M34.2827 59.5073C40.6597 59.5073 45.3066 57.4218 46.1964 54.2549H41.2035C40.4125 56.0829 37.9408 57.1386 34.2827 57.1386C30.0807 57.1386 26.8181 55.4393 26.8181 52.6586C26.8181 49.9551 30.0313 48.2301 34.2827 48.2301C37.9408 48.2301 40.3631 49.2857 41.1046 51.0108H46.0975C45.1583 47.8439 40.4125 45.8613 34.2827 45.8613C27.2135 45.8613 21.6274 48.5905 21.6274 52.6843C21.6274 56.7781 27.1147 59.5073 34.2827 59.5073Z" fill="#F0F4F6"/>
<ellipse cx="126" cy="17.5" rx="14" ry="17.5" fill="#434352"/>
<path d="M124.917 24.5073C126.565 24.5073 127.718 23.5547 128.398 22.3703C128.398 22.7822 128.398 23.7091 128.419 24.1211H130.478V24.0696C130.437 23.7606 130.375 22.6535 130.375 21.8554V15.7018C130.375 12.6121 128.769 10.8613 126.153 10.8613C123.516 10.8613 121.91 12.7924 121.663 15.3671H123.702C123.908 13.9252 124.773 13.0241 126.153 13.0241C127.615 13.0241 128.419 14.0797 128.419 15.7275V16.2682L127.162 16.3197C124.073 16.4485 121.333 17.3496 121.333 20.568C121.333 23.0397 122.919 24.5073 124.917 24.5073ZM125.453 22.4733C124.299 22.4733 123.475 21.7266 123.475 20.4135C123.475 18.6112 125.308 18.1478 127.492 17.9933C127.904 17.9675 128.192 17.9675 128.419 17.9675V19.0232C128.419 20.7482 127.306 22.4733 125.453 22.4733Z" fill="#F0F4F6"/>
<ellipse cx="87.5" cy="17.5" rx="24.5" ry="17.5" fill="#434352"/>
<path d="M92.8417 13.3625C91.6882 11.9722 89.5615 10.9423 86.8941 10.9423C81.8477 10.9423 78.207 13.9289 78.207 17.894C78.207 21.7303 81.5954 24.5882 86.6418 24.5882C89.5255 24.5882 91.6882 23.4811 92.8417 22.065V24.202H96.4823V6.43652H92.8417V13.3625ZM87.4708 22.2195C84.2267 22.2195 81.9919 20.34 81.9919 17.7653C81.9919 15.1905 84.1907 13.311 87.4708 13.311C90.5708 13.311 92.8777 15.0361 92.8777 17.7653C92.8777 20.4945 90.5708 22.2195 87.4708 22.2195Z" fill="#F0F4F6"/>
<ellipse cx="43.3998" cy="17.5" rx="19.6" ry="17.5" fill="#434352"/>
<path d="M44.8135 11.2646C42.8237 11.2646 41.18 12.1915 40.2573 13.4532V11.6509H37.3159V24.5244H40.2573V16.7488C40.2573 15.1267 41.6126 13.6591 43.6888 13.6591C45.9093 13.6591 46.8032 15.0237 46.8032 16.7745V24.5244H49.7734V15.9764C49.7734 13.0669 47.7837 11.2646 44.8135 11.2646Z" fill="#F0F4F6"/>
<ellipse cx="11.9" cy="17.5" rx="11.9" ry="17.5" fill="#434352"/>
<path d="M11.9033 24.5073C14.512 24.5073 16.4379 21.6494 16.4379 17.6843C16.4379 13.7193 14.512 10.8613 11.9033 10.8613C9.31212 10.8613 7.38623 13.7193 7.38623 17.6843C7.38623 21.6494 9.31212 24.5073 11.9033 24.5073ZM11.9033 22.1386C10.3101 22.1386 9.22458 20.2848 9.22458 17.6843C9.22458 15.0839 10.3101 13.2301 11.9033 13.2301C13.4965 13.2301 14.5995 15.0839 14.5995 17.6843C14.5995 20.2848 13.4965 22.1386 11.9033 22.1386Z" fill="#F0F4F6"/>
</svg>
