<svg width="40" height="40" viewBox="0 0 40 40" fill="none" xmlns="http://www.w3.org/2000/svg">
<g clip-path="url(#clip0_968_49582)">
<path d="M25.0083 19.9996C25.0083 28.1969 23.9805 35.2413 22.5055 38.3302C22.0611 39.2719 21.5722 39.8441 21.0611 39.9719C21.0611 39.9719 21.0592 39.9728 21.0555 39.9746C20.9361 39.9746 20.8167 39.983 20.6972 39.9885C18.4639 39.6219 16.675 30.8135 16.675 19.9996C16.675 9.18574 18.4639 0.377409 20.6972 0.0107422C20.8167 0.0162977 20.9361 0.0218533 21.0555 0.0246311C21.0555 0.0246311 21.0574 0.025557 21.0611 0.0274089C21.5722 0.155187 22.0611 0.727409 22.5055 1.66908C23.9805 4.75796 25.0083 11.8024 25.0083 19.9996Z" fill="#434352"/>
<path d="M4.175 32.5C6.47618 32.5 8.34166 26.9036 8.34166 20C8.34166 13.0964 6.47618 7.5 4.175 7.5C1.87381 7.5 0.0083313 13.0964 0.0083313 20C0.0083313 26.9036 1.87381 32.5 4.175 32.5Z" fill="#434352"/>
<path d="M12.5083 37.5C14.8095 37.5 16.675 29.665 16.675 20C16.675 10.335 14.8095 2.5 12.5083 2.5C10.2072 2.5 8.34167 10.335 8.34167 20C8.34167 29.665 10.2072 37.5 12.5083 37.5Z" fill="#434352"/>
<path d="M22.5055 1.66944C22.0611 0.727778 21.5722 0.155556 21.0611 0.0277778C21.0611 0.0277778 21.0592 0.0268519 21.0555 0.025C20.9861 0.00833333 20.9139 0 20.8417 0C20.7944 0 20.7444 0 20.6972 0.0111111C18.4639 0.377778 16.675 9.18611 16.675 20C16.675 30.8139 18.4639 39.6222 20.6972 39.9889C20.7444 39.9972 20.7944 40 20.8417 40C20.9139 40 20.9861 39.9917 21.0555 39.975C21.0555 39.975 21.0574 39.9741 21.0611 39.9722C21.5722 39.8444 22.0611 39.2722 22.5055 38.3306C23.9805 35.2417 25.0083 28.1972 25.0083 20C25.0083 11.8028 23.9805 4.75833 22.5055 1.66944Z" fill="#434352"/>
<path d="M27.6778 9.16634H30.9917C29.3667 6.17467 27.4611 3.80801 26.1278 2.33301C26.7583 3.94134 27.2917 6.30245 27.6778 9.16634Z" fill="#434352"/>
<path d="M31.8306 10.833H27.8778C28.15 13.3469 28.3111 16.1719 28.3389 19.1663H34.1083C33.8722 16.1275 32.9861 13.308 31.8306 10.833Z" fill="#434352"/>
<path d="M27.6778 30.833C27.2722 33.8386 26.7055 36.2913 26.0333 37.8997C28.3444 35.6219 30.1694 33.2608 31.4972 30.833H27.675H27.6778Z" fill="#434352"/>
<path d="M32.9 9.16645H36.8194C34.625 5.76923 31.4305 3.07756 27.65 1.51367C29.1639 3.21367 31.225 5.84978 32.9 9.16645Z" fill="#434352"/>
<path d="M33.3833 30.833C32.075 33.4302 30.2472 35.9497 27.9055 38.3747C31.5722 36.7969 34.675 34.1552 36.8194 30.833H33.3833Z" fill="#434352"/>
<path d="M33.6833 10.833C34.7611 13.3247 35.5667 16.133 35.7805 19.1663H39.9917C39.8694 16.1719 39.0833 13.3469 37.7833 10.833H33.6805H33.6833Z" fill="#434352"/>
<path d="M39.9917 20.833H35.8417C35.8305 23.6858 35.2639 26.4663 34.15 29.1663H37.7861C39.0861 26.6525 39.8694 23.8275 39.9944 20.833H39.9917Z" fill="#434352"/>
<path d="M34.175 20.833H28.3389C28.3139 23.8275 28.15 26.6525 27.8778 29.1663H32.3306C33.5444 26.4636 34.1611 23.683 34.175 20.833Z" fill="#434352"/>
</g>
<defs>
<clipPath id="clip0_968_49582">
<rect width="39.9833" height="40" fill="white" transform="translate(0.0083313)"/>
</clipPath>
</defs>
</svg>
