<svg width="162" height="162" viewBox="0 0 162 162" fill="none" xmlns="http://www.w3.org/2000/svg">
<rect width="162" height="162" rx="20" fill="#C6CDD2"/>
<path d="M161.419 80.4214C161.419 59.0923 152.916 38.6368 137.78 23.5549C122.644 8.47295 102.115 1.6103e-06 80.7097 0C59.3041 -1.6103e-06 38.7753 8.47294 23.6393 23.5549C8.50332 38.6368 3.23215e-06 59.0923 0 80.4214L80.7097 80.4214H161.419Z" fill="#989DA6"/>
<path d="M162 162C162 140.21 153.497 119.313 138.361 103.906C123.225 88.4986 102.696 79.8428 81.2907 79.8428C59.8852 79.8428 39.3564 88.4986 24.2204 103.906C9.08438 119.313 0.581058 140.21 0.581055 162L81.2907 162H162Z" fill="#989DA6"/>
<circle cx="146.593" cy="15" r="6" fill="#E6F273"/>
</svg>
